<?xml version="1.0" encoding="utf-8"?>
<!-- Generator: Adobe Illustrator 20.1.0, SVG Export Plug-In . SVG Version: 6.00 Build 0)  -->
<svg version="1.1" id="Layer_1" xmlns="http://www.w3.org/2000/svg" xmlns:xlink="http://www.w3.org/1999/xlink" x="0px" y="0px"
	 viewBox="0 0 1000 600" style="enable-background:new 0 0 1000 600;" xml:space="preserve">
<style type="text/css">
	.st0{fill:#96CA58;}
	.st1{fill:none;}
	.st2{font-family:'FranklinGothicLightSSiLight';}
	.st3{font-size:18px;}
	.st4{fill:#0B0506;stroke:#000000;stroke-miterlimit:10;}
	.st5{font-size:35px;}
	.st6{font-size:24px;}
</style>
<rect x="154.6" y="148" class="st0" width="36.1" height="329.1"/>
<rect x="105" y="469.3" class="st1" width="23" height="15.8"/>
<text transform="matrix(1 0 0 1 111.5518 480.701)" class="st2 st3">0</text>
<rect x="101" y="423.1" class="st1" width="31" height="15.8"/>
<text transform="matrix(1 0 0 1 101.6553 434.5371)" class="st2 st3">100</text>
<rect x="101" y="163" class="st1" width="31" height="15.8"/>
<text transform="matrix(1 0 0 1 101.6553 174.4121)" class="st2 st3">600</text>
<rect x="101" y="262.8" class="st1" width="31" height="15.8"/>
<text transform="matrix(1 0 0 1 101.6553 274.1934)" class="st2 st3">400</text>
<rect x="101" y="212.4" class="st1" width="31" height="15.8"/>
<text transform="matrix(1 0 0 1 101.6553 223.8027)" class="st2 st3">500</text>
<rect x="101" y="315.4" class="st1" width="31" height="15.8"/>
<text transform="matrix(1 0 0 1 101.6553 326.7871)" class="st2 st3">300</text>
<rect x="101" y="369.3" class="st1" width="31" height="15.8"/>
<text transform="matrix(1 0 0 1 101.6553 380.6621)" class="st2 st3">200</text>
<polygon class="st1" points="457.7,477.1 464.2,477.1 464.2,477.1 457.7,477.1 "/>
<rect x="101" y="114.8" class="st1" width="31" height="14.8"/>
<text transform="matrix(1 0 0 1 101.6553 126.1621)" class="st2 st3">700</text>
<rect x="226.7" y="287" class="st0" width="36.1" height="190.1"/>
<rect x="309.1" y="339" class="st0" width="36.1" height="138.1"/>
<rect x="391.5" y="353" class="st0" width="36.1" height="124.1"/>
<rect x="473.9" y="359" class="st0" width="36.1" height="118.1"/>
<rect x="556.2" y="366.3" class="st0" width="36.1" height="110.7"/>
<rect x="638.6" y="377.1" class="st0" width="36.1" height="99.9"/>
<rect x="721" y="385" class="st0" width="36.1" height="92.1"/>
<rect x="803.4" y="412.4" class="st0" width="36.1" height="64.7"/>
<rect x="875.4" y="412.4" class="st0" width="36.1" height="64.7"/>
<line class="st4" x1="136.4" y1="477.2" x2="926.5" y2="477.2"/>
<rect x="158.6" y="477.6" class="st1" width="21.8" height="71"/>
<text transform="matrix(4.489659e-11 -1 1 4.489659e-11 170.0489 534.2749)" class="st2 st3">Texas</text>
<rect x="233.9" y="485" class="st1" width="21.8" height="71"/>
<text transform="matrix(4.489659e-11 -1 1 4.489659e-11 245.2823 555.0293)" class="st2 st3">California</text>
<rect x="323.4" y="485" class="st1" width="21.8" height="97"/>
<text transform="matrix(4.489659e-11 -1 1 4.489659e-11 334.802 581.0244)" class="st2 st3">Pennsylvania</text>
<rect x="402.2" y="485" class="st1" width="21.8" height="48.5"/>
<text transform="matrix(4.489659e-11 -1 1 4.489659e-11 413.6071 532.8296)" class="st2 st3">Illinois</text>
<rect x="489.1" y="485" class="st1" width="21.8" height="41"/>
<text transform="matrix(4.489659e-11 -1 1 4.489659e-11 500.5226 522.1353)" class="st2 st3">Ohio</text>
<rect x="571" y="485" class="st1" width="21.8" height="55"/>
<text transform="matrix(4.489659e-11 -1 1 4.489659e-11 582.4577 536.7202)" class="st2 st3">Florida</text>
<rect x="653" y="485" class="st1" width="21.8" height="56"/>
<text transform="matrix(4.489659e-11 -1 1 4.489659e-11 664.3927 540.0449)" class="st2 st3">Indiana</text>
<rect x="735.3" y="485" class="st1" width="21.8" height="71"/>
<text transform="matrix(4.489659e-11 -1 1 4.489659e-11 746.685 555.8818)" class="st2 st3">Louisiana</text>
<rect x="821.4" y="485" class="st1" width="21.8" height="71"/>
<text transform="matrix(4.489659e-11 -1 1 4.489659e-11 832.8081 555.9741)" class="st2 st3">New York</text>
<rect x="893.5" y="485" class="st1" width="21.8" height="71"/>
<text transform="matrix(4.489659e-11 -1 1 4.489659e-11 904.8876 553.0342)" class="st2 st3">Michigan</text>
<rect x="74.2" y="45.4" class="st1" width="871.5" height="84.1"/>
<text transform="matrix(1 0 0 1 81.3772 67.5564)" class="st2 st5">Top Ten States - Highest Total Carbon Dioxide Emissions</text>
<rect x="353.3" y="79.9" class="st1" width="356.3" height="42.2"/>
<text transform="matrix(1 0 0 1 402.5714 95.1537)" class="st2 st6">in millions of metric tons</text>
</svg>
